<svg width="24" height="24" viewBox="0 0 24 24" fill="none" xmlns="http://www.w3.org/2000/svg">
<g clip-path="url(#clip0_80_2318)">
<path d="M17.7547 11.1236C17.6508 11.0738 17.5457 11.0262 17.4398 10.9808C17.2545 7.56712 15.3896 5.613 12.2576 5.59312H12.2153C10.3421 5.59312 8.784 6.39262 7.82513 7.84762L9.5475 9.02888C10.2638 7.94212 11.388 7.71075 12.216 7.71075H12.2449C13.2761 7.71712 14.0539 8.01713 14.5575 8.60175C14.9242 9.02738 15.1691 9.61575 15.2906 10.3579C14.3764 10.2026 13.3875 10.1546 12.3307 10.2154C9.35325 10.3867 7.43888 12.1234 7.5675 14.5365C7.63275 15.7605 8.2425 16.8135 9.28425 17.5012C10.1655 18.0829 11.2999 18.3675 12.4792 18.303C14.0363 18.2175 15.258 17.6235 16.11 16.5368C16.7572 15.7118 17.1667 14.643 17.3475 13.2956C18.0896 13.7438 18.6397 14.3329 18.9435 15.0416C19.4599 16.2458 19.4899 18.225 17.8751 19.8386C16.4602 21.252 14.7596 21.8636 12.189 21.8824C9.33788 21.8614 7.18162 20.9467 5.77987 19.1647C4.467 17.496 3.78863 15.0851 3.76312 12C3.78863 8.91488 4.467 6.50437 5.77987 4.83525C7.18162 3.05325 9.33788 2.139 12.189 2.11762C15.0611 2.13862 17.2549 3.05737 18.7103 4.84837C19.4242 5.72662 19.9624 6.831 20.3171 8.11837L22.3354 7.58025C21.9056 5.99513 21.2291 4.62937 20.3081 3.4965C18.4421 1.20075 15.7129 0.024375 12.1961 0H12.1823C8.67263 0.024375 5.97412 1.20525 4.161 3.51C2.54775 5.5605 1.71563 8.41425 1.6875 11.9914V12.0082C1.71563 15.5857 2.54775 18.4395 4.161 20.49C5.97412 22.7948 8.67263 23.9756 12.1823 24H12.1961C15.3161 23.9783 17.5155 23.1615 19.3271 21.3514C21.6975 18.9832 21.6263 16.0151 20.8451 14.1926C20.2845 12.8857 19.2157 11.8245 17.7547 11.1236ZM12.3675 16.1884C11.0625 16.2619 9.70687 15.6761 9.64013 14.4214C9.59025 13.4914 10.302 12.4534 12.4478 12.3296C12.6932 12.3154 12.9345 12.3084 13.1715 12.3086C13.9508 12.3086 14.6798 12.3844 15.3428 12.5291C15.0953 15.6169 13.6451 16.1182 12.3675 16.1884Z" fill="#7C7C88"/>
</g>
<defs>
<clipPath id="clip0_80_2318">
<rect width="24" height="24" fill="white"/>
</clipPath>
</defs>
</svg>
